<?xml version="1.0" standalone="no"?>
<!DOCTYPE svg PUBLIC "-//W3C//DTD SVG 20010904//EN"
 "http://www.w3.org/TR/2001/REC-SVG-20010904/DTD/svg10.dtd">
<svg version="1.0" xmlns="http://www.w3.org/2000/svg"
 width="208.000000pt" height="208.000000pt" viewBox="0 0 208.000000 208.000000"
 preserveAspectRatio="xMidYMid meet">
<metadata>
Created by potrace 1.16, written by Peter Selinger 2001-2019
</metadata>
<g transform="translate(0.000000,208.000000) scale(0.100000,-0.100000)"
fill="#000000" stroke="none">
<path d="M986 2071 c-3 -5 -32 -12 -63 -15 -99 -12 -176 -27 -233 -47 -72 -26
-223 -101 -233 -116 -4 -7 -14 -13 -22 -13 -18 0 -235 -216 -235 -234 0 -7 -6
-19 -14 -25 -17 -14 -90 -161 -115 -231 -20 -57 -35 -134 -47 -233 -3 -31 -10
-60 -15 -63 -12 -7 -12 -101 0 -108 5 -3 12 -32 15 -63 30 -260 116 -443 287
-614 168 -168 354 -255 612 -285 31 -3 60 -10 63 -15 7 -12 101 -12 108 0 3 5
32 12 63 15 100 12 176 28 238 49 64 23 200 90 226 113 8 8 21 14 27 14 14 0
222 207 222 221 0 5 8 17 18 27 21 22 95 169 121 242 20 57 35 134 47 233 3
31 10 60 15 63 12 7 12 101 0 108 -5 3 -12 32 -15 63 -30 260 -116 443 -287
614 -168 168 -354 255 -612 285 -31 3 -60 10 -63 15 -3 5 -27 9 -54 9 -27 0
-51 -4 -54 -9z m544 -487 c0 -1 -26 -24 -57 -50 -32 -25 -62 -53 -67 -62 -7
-11 8 -31 63 -83 l71 -68 0 -73 c-1 -72 -1 -74 -40 -113 l-40 -39 0 -138 0
-138 -105 -105 -104 -105 -201 0 c-134 0 -209 4 -223 12 -20 10 -49 38 -161
157 -21 23 -34 41 -28 41 6 0 14 -4 17 -10 16 -26 25 -4 25 59 0 39 5 73 11
77 7 4 10 -21 7 -83 l-3 -89 75 -73 75 -73 155 6 c85 3 173 6 196 6 36 0 48 7
108 64 l67 64 -3 129 -3 128 -119 3 c-108 2 -121 1 -137 -17 -11 -11 -19 -23
-19 -26 0 -12 -43 -95 -49 -95 -3 0 -17 24 -31 53 -42 89 -38 87 -168 87 -64
0 -113 2 -110 5 3 3 54 8 114 11 121 7 126 10 158 82 l20 43 -48 45 c-26 24
-52 44 -57 44 -5 0 -9 -20 -9 -45 l0 -45 -60 0 c-33 0 -60 4 -60 10 0 6 23 10
50 10 l50 0 0 54 c0 50 -2 55 -27 63 -22 8 -24 11 -10 16 16 6 99 -52 150
-105 26 -27 47 -22 93 20 22 20 79 70 127 111 48 41 86 79 84 85 -2 7 -37 11
-97 11 l-93 0 -34 -65 c-19 -36 -38 -69 -42 -73 -5 -5 -16 9 -26 30 -9 21 -26
55 -36 76 -22 43 -23 50 -9 45 5 -1 20 -23 32 -48 13 -24 28 -46 35 -48 7 -2
24 19 38 47 l25 51 126 0 126 0 36 34 c93 86 116 104 129 99 7 -3 13 -7 13 -9z"/>
<path d="M1333 1413 c-17 -16 -44 -39 -60 -53 l-28 -25 43 -3 42 -3 0 -79 c0
-43 -3 -80 -7 -82 -5 -2 -41 -2 -80 0 l-73 4 0 39 c0 50 -18 51 -65 5 -41 -39
-42 -55 -11 -116 l23 -45 127 -3 127 -3 70 71 69 71 0 59 0 59 -67 65 c-38 36
-71 66 -74 66 -3 0 -19 -12 -36 -27z"/>
</g>
</svg>
